<svg width="66" height="66" viewBox="0 0 66 66" fill="none" xmlns="http://www.w3.org/2000/svg">
<g clip-path="url(#clip0)">
<path d="M28.0153 55.7161C26.2489 55.563 24.5208 55.2105 22.8596 54.6662C23.3515 53.7714 23.6174 52.6007 23.556 51.3157C23.4377 48.8529 20.93 45.9807 20.644 45.6614C20.4487 45.4429 20.1642 45.3236 19.8726 45.3382C19.5795 45.3518 19.3086 45.4973 19.1349 45.7334C18.8837 46.0759 16.6983 49.1258 16.7769 51.578C15.5185 50.6737 14.3609 49.6419 13.3171 48.4954C13.3795 48.4556 13.4414 48.4158 13.5034 48.372C14.3619 47.7607 15.1031 46.7979 15.59 45.6614C16.5603 43.395 15.5613 39.7152 15.444 39.3028C15.3639 39.0208 15.161 38.7902 14.8916 38.6749C14.6222 38.559 14.3151 38.5716 14.0552 38.7081C13.6932 38.8984 10.6181 40.5646 9.49772 42.6891C9.03447 41.6659 8.64876 40.6084 8.34412 39.5253C8.36527 39.5258 8.38591 39.5274 8.40756 39.5274C9.60951 39.5274 10.9947 38.9719 12.1791 37.9467C14.0432 36.3329 14.7536 32.5866 14.8287 32.1646C14.88 31.8761 14.7985 31.5795 14.6066 31.358C14.4148 31.1364 14.1333 31.0125 13.8397 31.0226C13.4117 31.0362 9.60195 31.2024 7.73786 32.8167C7.65729 32.8862 7.58075 32.9592 7.50371 33.0317C7.51227 32.4673 7.53896 31.8998 7.5878 31.3348C7.65125 30.6027 7.74894 29.872 7.87986 29.1494C7.94381 29.1716 8.00876 29.1933 8.07523 29.2124C8.56265 29.3564 9.09791 29.4279 9.65483 29.4279C10.253 29.4279 10.8774 29.3453 11.4958 29.1802C13.878 28.5442 16.155 25.4857 16.4068 25.1388C16.579 24.9016 16.6354 24.5995 16.5598 24.316C16.4838 24.033 16.2849 23.7989 16.017 23.679C15.6474 23.5139 12.5038 22.1523 10.1488 22.539C10.6589 21.5662 11.24 20.6321 11.883 19.7419C12.6207 20.3305 13.6005 20.7812 14.7144 20.9972C14.9984 21.0521 15.2955 21.0767 15.5991 21.0767C17.8877 21.0767 20.5645 19.6885 20.8983 19.5102C21.1571 19.3723 21.3399 19.125 21.3958 18.8375C21.4517 18.5495 21.3747 18.2519 21.1863 18.0273C20.9472 17.7423 19.0458 15.5267 16.9652 14.6385C18.0125 13.8761 19.1208 13.2029 20.278 12.6334C20.7603 12.3957 20.9587 11.8127 20.7211 11.3308C20.4839 10.8484 19.9008 10.65 19.4189 10.8877C18.085 11.5443 16.8096 12.3247 15.6117 13.216C15.8161 10.8449 14.2541 7.83169 14.0643 7.47619C13.9263 7.21737 13.6791 7.03459 13.3916 6.9792C13.1036 6.9233 12.806 7.00035 12.5814 7.18867C12.2531 7.4636 9.35925 9.94705 8.88945 12.3676C8.4413 14.6768 9.13064 16.7654 10.4917 17.5656C10.5209 17.7609 10.5733 17.9533 10.6458 18.1416C9.90357 19.121 9.23538 20.1543 8.64523 21.2313C7.60241 19.2383 5.29671 17.5213 4.99811 17.3047C4.76095 17.132 4.45882 17.0761 4.17533 17.1517C3.89184 17.2272 3.6582 17.4266 3.53836 17.6945C3.36313 18.0852 1.84748 21.5843 2.48345 23.9665C2.80269 25.1609 3.39787 26.2199 4.16023 26.9475C4.76749 27.5276 5.45633 27.8654 6.13862 27.9344C5.908 28.9954 5.74335 30.0805 5.64919 31.1671C5.63408 31.3413 5.62199 31.5161 5.61092 31.6908C3.82588 30.6117 1.47234 30.1666 1.14303 30.1077C0.853999 30.0568 0.557919 30.1384 0.335859 30.3302C0.114302 30.5221 -0.00906443 30.8036 0.000502784 31.0966C0.0140983 31.5251 0.180769 35.3344 1.79461 37.199C2.99101 38.5807 4.50616 39.3405 5.81233 39.3405C5.96944 39.3405 6.12301 39.3285 6.27307 39.3063C6.58425 40.5641 6.99665 41.7918 7.5022 42.9806C5.30376 42.6009 2.58768 43.3381 2.23722 43.4378C1.95524 43.5179 1.72411 43.7213 1.6088 43.9907C1.49349 44.2601 1.50558 44.5673 1.64203 44.8266C1.84144 45.2057 3.65719 48.5588 5.92412 49.5296C6.82646 49.9163 7.73232 50.1011 8.56064 50.1011C9.68051 50.1011 10.6559 49.7617 11.2828 49.1263C12.3442 50.3826 13.5255 51.5226 14.8126 52.5347C12.7747 53.2286 10.8346 54.9235 10.5753 55.1551C10.3568 55.3505 10.2379 55.634 10.252 55.9271C10.2661 56.2201 10.4116 56.4905 10.6478 56.6642C10.9842 56.9115 13.9339 59.0263 16.363 59.0263C16.4274 59.0263 16.4914 59.0248 16.5553 59.0218C18.9053 58.909 20.7709 57.7433 21.2251 56.2312C21.2573 56.2176 21.2891 56.2035 21.3208 56.1889C23.4059 56.9669 25.5993 57.4598 27.8476 57.6542C27.8763 57.6567 27.9045 57.6577 27.9327 57.6577C28.4317 57.6577 28.8567 57.2755 28.9005 56.769C28.9469 56.2337 28.5506 55.7619 28.0153 55.7161V55.7161ZM13.8538 41.0964C14.0698 42.3079 14.2149 43.9293 13.8015 44.8956C13.4585 45.6962 12.9384 46.3855 12.3749 46.7863C12.239 46.8835 12.1065 46.9575 11.9797 47.0134C11.8805 46.2516 11.4701 45.4766 10.815 44.7938C10.8855 44.4484 10.9947 44.0964 11.1408 43.7561C11.5547 42.7898 12.8281 41.7761 13.8538 41.0964ZM9.01131 34.287C9.80589 33.5992 11.3945 33.2447 12.6146 33.0821C12.2788 34.2659 11.7002 35.7876 10.9056 36.4754C9.99774 37.2614 9.00577 37.6094 8.34059 37.5837C8.58531 36.8556 8.5551 35.9799 8.26506 35.0796C8.47957 34.7986 8.72832 34.5323 9.01131 34.287ZM14.0145 24.9953C13.1947 25.9132 12.0089 27.029 10.9937 27.3C10.1518 27.5245 9.28875 27.5417 8.62509 27.3458C8.46497 27.2984 8.32398 27.24 8.20162 27.1746C8.58733 26.7843 8.88794 26.2617 9.07223 25.6363C9.14222 25.3976 9.19409 25.1478 9.22984 24.8895C9.54556 24.7309 9.88595 24.6 10.2465 24.5033C11.2621 24.2324 12.8462 24.6085 14.0145 24.9953ZM15.085 19.0868C13.8377 18.8446 13.0033 18.269 12.6317 17.7529C13.3543 17.4951 14.024 16.9311 14.5517 16.1481C14.9057 16.1431 15.2688 16.1743 15.6358 16.2453C16.6671 16.4452 17.9259 17.4749 18.8071 18.3335C17.6737 18.7957 16.1077 19.2851 15.085 19.0868ZM10.7999 12.7382C10.9998 11.7074 12.029 10.4481 12.8875 9.56738C13.3498 10.7013 13.8397 12.2668 13.6413 13.2895C13.3196 14.9457 12.309 16.0832 11.6498 15.9553C10.9927 15.8274 10.4781 14.3948 10.7999 12.7382ZM4.36365 23.4645C4.09225 22.4489 4.46839 20.8652 4.85511 19.697C5.77356 20.5168 6.88839 21.7021 7.1598 22.7178C7.38488 23.5597 7.4015 24.4227 7.20562 25.0859C7.05909 25.5834 6.81487 25.9112 6.5344 25.9857C6.25393 26.0607 5.8788 25.8981 5.50417 25.5406C5.00415 25.0627 4.58823 24.3064 4.36365 23.4645ZM3.26594 35.9255C2.57811 35.131 2.22362 33.5418 2.06098 32.3222C3.24479 32.6581 4.76598 33.2367 5.45432 34.0312C6.55857 35.3067 6.82696 36.8052 6.3209 37.2433C5.81485 37.6814 4.3697 37.201 3.26594 35.9255V35.9255ZM6.69 47.7416C5.72421 47.3276 4.71009 46.0537 4.03082 45.028C5.24233 44.8125 6.86372 44.667 7.8295 45.0809C9.3809 45.7455 10.2772 46.9757 10.0138 47.591C9.7505 48.2058 8.2414 48.4057 6.69 47.7416V47.7416ZM19.997 47.9717C20.7155 48.9636 21.5625 50.3685 21.6123 51.4093C21.6687 52.5886 21.3359 53.6007 20.9018 54.1133C20.4779 53.4668 19.7638 52.9461 18.8686 52.6183C18.8645 52.576 18.859 52.5337 18.8494 52.4914C18.7799 52.1883 18.7371 51.8711 18.7215 51.5478C18.6712 50.4984 19.3721 49.0316 19.997 47.9717V47.9717ZM16.4616 57.0781C15.4148 57.128 13.9435 56.4261 12.8835 55.8012C13.879 55.0771 15.2733 54.2377 16.3232 54.1873C18.008 54.1073 19.353 54.8208 19.3852 55.489C19.4174 56.1577 18.1475 56.9976 16.4616 57.0781Z" fill="url(#paint0_linear)"/>
<path d="M63.7629 43.4378C63.412 43.3386 60.6964 42.6009 58.4975 42.9811C59.0035 41.7923 59.4159 40.5641 59.7266 39.3063C59.8766 39.3285 60.0307 39.341 60.1878 39.341C61.4935 39.341 63.0091 38.5807 64.2056 37.199C65.8194 35.3344 65.9861 31.5251 65.9997 31.0971C66.0087 30.8041 65.8859 30.5221 65.6638 30.3302C65.4422 30.1384 65.1462 30.0568 64.8571 30.1082C64.5278 30.1666 62.1743 30.6117 60.3892 31.6908C60.3777 31.5161 60.3661 31.3413 60.351 31.1671C60.2568 30.0815 60.0927 28.9984 59.862 27.9384C60.931 27.8357 61.9855 27.0693 62.7549 25.7863C63.0313 25.3256 62.8818 24.7279 62.421 24.4514C61.9603 24.1755 61.3626 24.3251 61.0861 24.7858C60.5972 25.601 59.9159 26.1056 59.4658 25.9857C58.8192 25.813 58.4053 24.3482 58.8404 22.7178C59.1118 21.7026 60.2261 20.5178 61.1435 19.698C61.3651 20.3637 61.6023 21.2207 61.6914 22.0476C61.7488 22.5818 62.2287 22.9695 62.7629 22.9106C63.2972 22.8532 63.6834 22.3733 63.626 21.8391C63.4095 19.83 62.5001 17.7806 62.4618 17.6945C62.342 17.4266 62.1078 17.2277 61.8248 17.1517C61.5418 17.0761 61.2392 17.1325 61.002 17.3047C60.7034 17.5213 58.3978 19.2383 57.3549 21.2313C56.7648 20.1543 56.0966 19.121 55.3544 18.1416C55.4274 17.9533 55.4792 17.7609 55.5085 17.5661C56.8695 16.7654 57.5589 14.6773 57.1107 12.3675C56.6409 9.94704 53.7476 7.4636 53.4193 7.18816C53.1947 6.99984 52.8971 6.9233 52.6091 6.97869C52.3211 7.03458 52.0738 7.21737 51.9359 7.47619C51.7465 7.83168 50.1846 10.8449 50.3885 13.216C49.1906 12.3247 47.9156 11.5438 46.5817 10.8871C46.0999 10.65 45.5163 10.8484 45.2791 11.3303C45.0419 11.8127 45.2398 12.3957 45.7222 12.6329C46.8793 13.2029 47.9876 13.8761 49.035 14.6385C46.9544 15.5267 45.053 17.7418 44.8138 18.0268C44.6255 18.2519 44.549 18.5495 44.6049 18.837C44.6607 19.125 44.843 19.3723 45.1018 19.5102C45.4357 19.6885 48.1125 21.0767 50.4011 21.0767C50.7052 21.0767 51.0023 21.0521 51.2863 20.9972C52.3996 20.7807 53.3795 20.3305 54.1172 19.7419C54.7607 20.6321 55.3418 21.5662 55.8514 22.539C53.4963 22.1523 50.3527 23.5133 49.9831 23.679C49.7158 23.7989 49.5164 24.033 49.4408 24.316C49.3648 24.5995 49.4212 24.9016 49.5934 25.1388C49.8452 25.4857 52.1227 28.5437 54.5049 29.1802C55.1232 29.3453 55.7471 29.4279 56.3453 29.4279C56.9027 29.4279 57.4375 29.3564 57.9249 29.2124C57.9914 29.1927 58.0564 29.1716 58.1203 29.1494C58.2512 29.8715 58.3489 30.6027 58.4124 31.3348C58.4612 31.8988 58.4884 32.4673 58.4964 33.0317C58.4194 32.9592 58.3429 32.8862 58.2623 32.8162C56.3982 31.2024 52.5884 31.0362 52.1604 31.0221C51.8664 31.014 51.5859 31.1364 51.3935 31.358C51.2017 31.5795 51.1201 31.8761 51.1715 32.1646C51.246 32.5866 51.957 36.3324 53.8211 37.9467C55.0054 38.9719 56.3907 39.5273 57.5926 39.5273C57.6142 39.5273 57.6349 39.5258 57.656 39.5253C57.3514 40.6084 56.9657 41.6659 56.5024 42.6891C55.3821 40.5641 52.307 38.8984 51.9449 38.7081C51.6856 38.5716 51.3784 38.559 51.1085 38.6749C50.8392 38.7902 50.6362 39.0208 50.5562 39.3028C50.4388 39.7152 49.4393 43.395 50.4101 45.6614C50.8971 46.7979 51.6383 47.7602 52.4968 48.372C52.5587 48.4158 52.6207 48.4556 52.6831 48.4954C51.6393 49.6419 50.4816 50.6737 49.2233 51.578C49.3019 49.1258 47.117 46.0759 46.8652 45.7334C46.6915 45.4973 46.4206 45.3518 46.1276 45.3382C45.8375 45.3236 45.551 45.4429 45.3556 45.6614C45.0701 45.9807 42.5625 48.8529 42.4442 51.3157C42.3827 52.6007 42.6481 53.7714 43.1406 54.6662C41.4794 55.2105 39.7513 55.563 37.9848 55.7161C37.4496 55.7619 37.0533 56.2337 37.0996 56.769C37.1434 57.276 37.5684 57.6582 38.0674 57.6582C38.0956 57.6582 38.1243 57.6567 38.1525 57.6542C40.4008 57.4598 42.5942 56.9674 44.6794 56.1894C44.7116 56.204 44.7443 56.2186 44.7771 56.2322C44.9795 56.9054 45.4619 57.5288 46.1764 58.0132C47.0495 58.6044 48.2102 58.9624 49.4449 59.0218C49.5088 59.0248 49.5728 59.0263 49.6372 59.0263C52.0663 59.0263 55.016 56.912 55.3524 56.6647C55.5885 56.491 55.7335 56.2201 55.7476 55.9271C55.7622 55.6345 55.6429 55.351 55.4244 55.1551C55.1655 54.9235 53.2254 53.2291 51.1871 52.5347C52.4746 51.5231 53.6559 50.3831 54.7174 49.1263C55.1927 49.6087 55.8765 49.9345 56.6958 50.0523C56.932 50.086 57.1757 50.1026 57.4259 50.1026C58.2794 50.1026 59.1969 49.9068 60.076 49.5301C62.343 48.5593 64.1582 45.2062 64.3581 44.8271C64.4946 44.5673 64.5067 44.2601 64.3914 43.9907C64.2755 43.7213 64.0449 43.5184 63.7629 43.4378V43.4378ZM44.3878 51.4088C44.4382 50.36 45.2766 48.9667 46.0002 47.9717C46.62 49.0276 47.3285 50.507 47.2786 51.5478C47.263 51.8711 47.2202 52.1883 47.1507 52.4914C47.1412 52.5332 47.1356 52.5755 47.1316 52.6173C46.8813 52.7079 46.6427 52.8137 46.4201 52.935C45.8471 53.2477 45.3989 53.6531 45.0988 54.1133C44.6643 53.6012 44.3309 52.5891 44.3878 51.4088V51.4088ZM49.538 57.0781C48.6679 57.0364 47.8406 56.7901 47.2681 56.4024C46.839 56.1119 46.6009 55.779 46.615 55.4895C46.6286 55.2 46.8975 54.8913 47.3522 54.643C47.898 54.3454 48.6372 54.1813 49.4131 54.1813C49.5007 54.1813 49.5884 54.1833 49.677 54.1873C50.7269 54.2377 52.1217 55.0776 53.1167 55.8012C52.0562 56.4266 50.5879 57.128 49.538 57.0781ZM63.9367 32.3232C63.772 33.5368 63.416 35.138 62.7342 35.9255C61.6295 37.201 60.1853 37.6814 59.6793 37.2433C59.1732 36.8057 59.4416 35.3067 60.5458 34.0312C61.2337 33.2372 62.7534 32.6591 63.9367 32.3232ZM53.1096 9.56788C53.9626 10.4466 55.0019 11.7155 55.2003 12.7382C55.522 14.3948 55.0074 15.8274 54.3503 15.9553C53.6937 16.0821 52.6806 14.9457 52.3588 13.2895C52.1589 12.2583 52.6428 10.7059 53.1096 9.56788ZM50.9152 19.0868C49.8839 19.2867 48.3315 18.8028 47.193 18.3365C48.0722 17.4835 49.3411 16.4437 50.3638 16.2453C50.7309 16.1738 51.0944 16.1431 51.4479 16.1476C51.9761 16.9311 52.6458 17.4951 53.3684 17.7529C52.9968 18.269 52.1624 18.8446 50.9152 19.0868V19.0868ZM55.0064 27.3C53.9918 27.029 52.8075 25.9152 51.9877 24.9973C53.1514 24.6151 54.7466 24.2349 55.7537 24.5038C56.1142 24.6 56.4551 24.7309 56.7713 24.89C56.9038 25.8261 57.2598 26.6272 57.7975 27.1751C57.6757 27.2405 57.5352 27.2984 57.3751 27.3458C56.7114 27.5416 55.8483 27.5245 55.0064 27.3V27.3ZM55.0945 36.4754C54.3005 35.7881 53.7224 34.2679 53.386 33.0846C54.6001 33.2492 56.2013 33.6052 56.9889 34.287C57.2718 34.5323 57.5206 34.7986 57.7351 35.0796C57.4451 35.9794 57.4148 36.8556 57.6591 37.5837C56.9944 37.6094 56.0024 37.2614 55.0945 36.4754V36.4754ZM52.1992 44.8951C51.7853 43.9293 51.9303 42.3079 52.1458 41.0964C53.172 41.7761 54.4455 42.7893 54.8594 43.7556C55.0054 44.0959 55.1147 44.4484 55.1852 44.7938C54.5301 45.4766 54.1197 46.2516 54.021 47.0134C53.8936 46.9575 53.7612 46.8835 53.6252 46.7863C53.0618 46.3855 52.5421 45.6962 52.1992 44.8951ZM59.3097 47.7416C58.509 48.0845 57.657 48.2244 56.9727 48.1263C56.4596 48.0522 56.1001 47.8574 55.9858 47.591C55.7225 46.9757 56.6193 45.7455 58.1707 45.0809C59.1359 44.6675 60.7558 44.8125 61.9668 45.0275C61.2881 46.0472 60.2674 47.3312 59.3097 47.7416V47.7416Z" fill="url(#paint1_linear)"/>
<path d="M31.6865 20.5516C32.431 20.5516 32.9813 21.3015 33.3374 22.8013C38.2361 35.5553 40.707 42.0833 40.7502 42.3854V42.5635C40.7502 43.1677 40.3671 43.5346 39.601 43.6641H39.5363C38.8242 43.6641 38.317 42.9735 38.0149 41.5924L35.2796 34.487H28.1581L24.8239 43.2918C24.5002 43.54 24.2143 43.6641 23.9661 43.6641H23.8367C23.0706 43.5238 22.6875 43.1407 22.6875 42.5149V42.4502L24.7592 36.8501C28.3739 27.4303 30.3377 22.2025 30.6506 21.1666C31.0175 20.7566 31.3628 20.5516 31.6865 20.5516ZM31.6865 25.1805L29.1292 32.1078H34.357V32.0431L31.7512 25.1805H31.6865Z" fill="url(#paint2_linear)"/>
</g>
<defs>
<linearGradient id="paint0_linear" x1="14.4521" y1="6.96136" x2="14.4521" y2="59.0263" gradientUnits="userSpaceOnUse">
<stop stop-color="#DAB24C"/>
<stop offset="1" stop-color="#9E7E33"/>
</linearGradient>
<linearGradient id="paint1_linear" x1="51.548" y1="6.96106" x2="51.548" y2="59.0263" gradientUnits="userSpaceOnUse">
<stop stop-color="#DAB24C"/>
<stop offset="1" stop-color="#9E7E33"/>
</linearGradient>
<linearGradient id="paint2_linear" x1="33" y1="13.6641" x2="33" y2="52.3359" gradientUnits="userSpaceOnUse">
<stop stop-color="#DAB24C"/>
<stop offset="1" stop-color="#9E7E33"/>
</linearGradient>
<clipPath id="clip0">
<rect width="66" height="66" fill="white"/>
</clipPath>
</defs>
</svg>
